<svg width="189" height="38" viewBox="0 0 189 38" fill="none" xmlns="http://www.w3.org/2000/svg">
<g clip-path="url(#clip0_1641_903)">
<path d="M8.79499 16.3456L13.1912 27.1644L17.5863 37.9821H8.79499H0.00488281L4.39994 27.1644L8.79499 16.3456Z" fill="black"/>
<path d="M32.512 27.0784L35.2941 32.5302L38.0762 37.9821H32.512H26.9478L29.7299 32.5302L32.512 27.0784Z" fill="black"/>
<path d="M19.4853 0.0324135L26.0865 19.0078L32.6889 37.9821H19.4853H6.28174L12.8829 19.0078L19.4853 0.0324135Z" fill="black"/>
<path d="M43.1504 37.6368C43.4068 37.6368 43.6137 37.5887 43.8885 37.4255V31.6294C43.6125 31.4662 43.4056 31.4271 43.1504 31.4271V31.1678H44.1356L45.3669 31.1198C46.9718 31.1198 47.5236 31.9267 47.5236 32.9751C47.5236 34.1665 46.7166 34.7633 45.5934 34.8393L44.4909 34.8874V37.4244C44.7967 37.5876 45.0128 37.6356 45.2887 37.6356V37.8949H43.1515V37.6368H43.1504ZM45.3266 34.523C46.2625 34.4939 46.8729 33.9944 46.8729 32.9371C46.8729 32.1301 46.4395 31.4763 45.3565 31.4763C45.0312 31.4763 44.6863 31.5054 44.4897 31.5434V34.542L45.3266 34.523Z" fill="black"/>
<path d="M49.9447 37.6457C50.1413 37.6457 50.4172 37.5686 50.6345 37.4535V33.5708C50.4471 33.4936 50.1712 33.4746 49.9355 33.4936V33.2634L51.0978 32.965L51.176 33.0231V33.6378L51.944 33.0991C52.0233 33.041 52.298 33.003 52.5648 33.003C52.9591 33.003 53.3132 33.2053 53.3132 33.2053L53.3822 33.2914C53.373 33.6859 53.1062 33.8971 53.0568 33.82C52.8993 33.6177 52.6039 33.4646 52.2498 33.4646C51.9739 33.4646 51.737 33.5507 51.176 33.8681V37.4535C51.3921 37.5686 51.6887 37.6457 51.875 37.6457V37.8961H49.9447V37.6457Z" fill="black"/>
<path d="M59.1925 34.8874L59.0844 35.0416L56.1885 35.2238C56.1793 35.3098 56.1793 35.397 56.1793 35.4931C56.1793 36.6365 56.7599 37.5406 57.844 37.5406C58.405 37.5406 58.7407 37.3004 59.2028 37.0411L59.3109 37.2624C58.5234 37.791 58.2969 37.9832 57.5382 37.9832C56.3667 37.9832 55.5884 37.0992 55.5884 35.5322C55.5884 34.0044 56.4943 33.0041 57.6566 33.0041C58.6901 33.0041 59.3005 33.763 59.1925 34.8874ZM56.208 34.9164L58.6303 34.7141C58.6303 33.7429 58.1279 33.3584 57.5761 33.3584C56.8093 33.3595 56.2874 34.0424 56.208 34.9164Z" fill="black"/>
<path d="M61.7226 37.6457C61.9192 37.6457 62.1951 37.5686 62.4124 37.4535V33.5797C62.225 33.5026 61.9491 33.4836 61.7134 33.5126V33.2824L62.8757 32.965L62.9538 33.0231V33.5417L63.6919 33.0902C63.7609 33.0421 63.9874 33.0041 64.3127 33.0041C64.9427 33.0041 65.268 33.1774 65.5049 33.6099L66.3326 33.1192C66.4119 33.0712 66.6177 33.0041 66.9626 33.0041C68.0456 33.0041 68.41 33.5618 68.41 35.0606V37.4535C68.6261 37.5686 68.9216 37.6457 69.109 37.6457V37.8961H67.2374V37.6457C67.3949 37.6356 67.6903 37.5686 67.8674 37.4535V35.1086C67.8674 34.0223 67.68 33.4165 66.666 33.4165C66.4395 33.4165 66.105 33.5126 65.5922 33.782C65.7003 34.0994 65.7406 34.5409 65.7406 35.0606V37.4535C65.9475 37.5686 66.2234 37.6356 66.3809 37.6457V37.8961H64.5691V37.6457C64.7266 37.6356 65.022 37.5686 65.1991 37.4535V35.0215C65.1991 34.0122 65.0117 33.4165 64.0276 33.4165C63.7816 33.4165 63.5057 33.4746 62.9538 33.7719V37.4535C63.1504 37.5686 63.4263 37.6356 63.5942 37.6457V37.8961H61.7226V37.6457Z" fill="black"/>
<path d="M72.1912 33.6099C72.0039 33.5238 71.7383 33.5037 71.5015 33.5328V33.3025L72.6534 33.0041L72.7327 33.0622V37.4546C72.9489 37.5697 73.2443 37.6468 73.4317 37.6468V37.8972H71.5015V37.6468C71.7084 37.6468 71.974 37.5697 72.1912 37.4546V33.6099ZM72.0728 31.3511C72.0728 31.5724 72.2211 31.7456 72.4476 31.7456C72.6741 31.7456 72.8212 31.5724 72.8212 31.3511C72.8212 31.1298 72.6729 30.9566 72.4476 30.9566C72.2211 30.9566 72.0728 31.1298 72.0728 31.3511Z" fill="black"/>
<path d="M79.8824 37.3864C80.0698 37.4635 80.3653 37.5116 80.6412 37.4926V37.7228L79.4203 37.9821L79.3409 37.924V37.4725L78.6914 37.8189C78.504 37.9151 78.2683 37.9821 77.8637 37.9821C76.8393 37.9821 76.4163 37.5015 76.4163 36.1179V33.6088C76.2289 33.5317 75.953 33.5227 75.7173 33.5506V33.3204L76.8796 33.003L76.9577 33.0611V36.0888C76.9577 37.1752 77.3026 37.5686 78.0706 37.5686C78.5132 37.5686 78.8385 37.4725 79.3409 37.2422V33.6088C79.1535 33.5317 78.8776 33.5227 78.642 33.5506V33.3204L79.8042 33.003L79.8836 33.0611V37.3864H79.8824Z" fill="black"/>
<path d="M82.9853 37.6457C83.1819 37.6457 83.4578 37.5686 83.6751 37.4535V33.5797C83.4877 33.5026 83.2117 33.4836 82.9761 33.5126V33.2824L84.1384 32.965L84.2165 33.0231V33.5417L84.9546 33.0902C85.0236 33.0421 85.2501 33.0041 85.5754 33.0041C86.2054 33.0041 86.5307 33.1774 86.7676 33.6099L87.5953 33.1192C87.6746 33.0712 87.8804 33.0041 88.2253 33.0041C89.3083 33.0041 89.6727 33.5618 89.6727 35.0606V37.4535C89.8888 37.5686 90.1843 37.6457 90.3717 37.6457V37.8961H88.5001V37.6457C88.6576 37.6356 88.953 37.5686 89.1301 37.4535V35.1086C89.1301 34.0223 88.9427 33.4165 87.9287 33.4165C87.7022 33.4165 87.3677 33.5126 86.8549 33.782C86.963 34.0994 87.0032 34.5409 87.0032 35.0606V37.4535C87.2102 37.5686 87.4861 37.6356 87.6436 37.6457V37.8961H85.8318V37.6457C85.9893 37.6356 86.2847 37.5686 86.4618 37.4535V35.0215C86.4618 34.0122 86.2744 33.4165 85.2903 33.4165C85.0443 33.4165 84.7684 33.4746 84.2165 33.7719V37.4535C84.4131 37.5686 84.689 37.6356 84.8569 37.6457V37.8961H82.9853V37.6457Z" fill="black"/>
<path d="M96.9393 31.1678H101.223V32.7918H100.917C100.917 32.4364 100.868 31.8786 100.71 31.5232H98.2775V34.2816H100.149C100.257 34.0603 100.297 33.7239 100.326 33.4545H100.632V35.454H100.326C100.307 35.2036 100.257 34.8393 100.149 34.6269H98.2775V37.4244C98.5626 37.5876 98.7695 37.6356 99.0156 37.6356V37.8949H96.937V37.6356C97.1934 37.6356 97.4003 37.5876 97.6751 37.4244V31.6294C97.3992 31.4662 97.1922 31.4271 96.937 31.4271V31.1678H96.9393Z" fill="black"/>
<path d="M104.098 33.2824C104.433 33.1382 104.896 33.0131 105.369 33.0131C106.413 33.0131 106.836 33.4936 106.836 34.6661C106.836 35.7234 106.659 36.7996 106.836 37.4535C106.944 37.5116 107.161 37.5015 107.506 37.4434V37.6736L106.758 37.943C106.432 37.943 106.285 37.7888 106.285 37.3473L106.266 37.3372L105.576 37.7988C105.339 37.924 105.142 37.9531 104.905 37.9531C104.127 37.9531 103.665 37.4535 103.665 36.7225C103.665 36.309 103.823 35.9726 104.019 35.7133C104.728 35.492 105.477 35.3869 106.264 35.435C106.264 35.3679 106.284 34.9164 106.284 34.6761C106.284 33.782 105.999 33.3685 105.21 33.3685C104.835 33.3685 104.6 33.4836 104.501 33.5987C104.412 33.6948 104.353 34.0122 104.333 34.4057H104.107C104.008 34.0312 103.969 33.6658 103.988 33.3863L104.098 33.2824ZM105.133 37.5406C105.448 37.5406 105.694 37.4546 106.266 37.1182V35.6865C105.625 35.6675 104.887 35.7535 104.454 35.9849C104.346 36.1101 104.257 36.3984 104.257 36.6678C104.257 37.2624 104.661 37.5406 105.133 37.5406Z" fill="black"/>
<path d="M110.165 36.4442L110.313 37.2232C110.667 37.5596 111.003 37.6267 111.357 37.6267C111.928 37.6267 112.519 37.3194 112.519 36.7616C112.519 36.1849 112.075 36.0117 111.268 35.6082C110.451 35.1757 109.978 34.8292 109.978 34.1855C109.978 33.4266 110.658 33.003 111.594 33.003C112.008 33.003 112.45 33.1092 112.815 33.3875L112.884 33.4735C112.864 33.8681 112.726 34.3095 112.726 34.3095H112.5C112.49 33.9631 112.441 33.6747 112.372 33.6076C112.283 33.5216 112.047 33.3573 111.505 33.3573C111.003 33.3573 110.461 33.5395 110.461 34.0592C110.461 34.4917 110.806 34.713 111.712 35.1746C112.766 35.7323 113.062 35.9815 113.062 36.6544C113.062 37.3652 112.283 37.981 111.319 37.981C110.256 37.981 109.93 37.5194 109.93 37.5194V36.4431H110.165V36.4442Z" fill="black"/>
<path d="M118.634 37.6457C118.783 37.6356 119.078 37.5686 119.264 37.4535V35.1086C119.264 33.9653 118.989 33.4266 117.866 33.4266C117.65 33.4266 117.157 33.5808 116.773 33.763V37.4535C116.98 37.5686 117.217 37.6457 117.403 37.6457V37.8961H115.542V37.6457C115.739 37.6457 116.014 37.5686 116.232 37.4535V31.2829C116.055 31.1969 115.759 31.1969 115.533 31.2159V30.9856L116.695 30.6872L116.773 30.7454V33.5428L117.58 33.0913C117.66 33.0432 117.915 33.0052 118.191 33.0052C119.362 33.0052 119.796 33.5629 119.796 35.0617V37.4546C120.012 37.5697 120.307 37.6468 120.495 37.6468V37.8972H118.633V37.6457H118.634Z" fill="black"/>
<path d="M123.577 33.6099C123.39 33.5238 123.125 33.5037 122.888 33.5328V33.3025L124.04 33.0041L124.119 33.0622V37.4546C124.335 37.5697 124.631 37.6468 124.818 37.6468V37.8972H122.888V37.6468C123.095 37.6468 123.36 37.5697 123.577 37.4546V33.6099ZM123.459 31.3511C123.459 31.5724 123.607 31.7456 123.834 31.7456C124.06 31.7456 124.207 31.5724 124.207 31.3511C124.207 31.1298 124.059 30.9566 123.834 30.9566C123.607 30.9566 123.459 31.1298 123.459 31.3511Z" fill="black"/>
<path d="M127.35 35.5322C127.35 33.9843 128.335 33.0041 129.565 33.0041C130.766 33.0041 131.711 33.9273 131.711 35.4071C131.711 37.012 130.904 37.9832 129.505 37.9832C128.106 37.9832 127.35 37.012 127.35 35.5322ZM131.111 35.5121C131.111 34.2626 130.49 33.3595 129.496 33.3595C128.462 33.3595 127.95 34.2246 127.95 35.4361C127.95 36.6566 128.521 37.6278 129.574 37.6278C130.627 37.6278 131.111 36.8298 131.111 35.5121Z" fill="black"/>
<path d="M137.266 37.6457C137.424 37.6356 137.719 37.5686 137.896 37.4535V35.1086C137.896 33.9262 137.502 33.4165 136.429 33.4165C136.203 33.4165 135.789 33.5708 135.405 33.7529V37.4535C135.612 37.5686 135.888 37.6356 136.045 37.6457V37.8961H134.174V37.6457C134.37 37.6457 134.646 37.5686 134.864 37.4535V33.5797C134.676 33.4936 134.4 33.4735 134.165 33.4936V33.2634L135.327 32.965L135.405 33.0231V33.5417L136.134 33.0991C136.212 33.0511 136.459 33.003 136.744 33.003C137.916 33.003 138.438 33.5607 138.438 35.0595V37.4524C138.654 37.5675 138.949 37.6446 139.137 37.6446V37.8949H137.266V37.6457Z" fill="black"/>
<path d="M145.706 31.1678H146.789L147.961 31.1198C149.447 31.1198 150.087 31.8116 150.087 32.8689C150.087 33.9072 149.427 34.5889 148.433 34.7242C148.472 34.7622 148.591 34.8583 148.718 34.9835L149.92 37.05C150.176 37.4825 150.441 37.6457 150.815 37.6938V37.9341H150.362C149.948 37.9341 149.653 37.848 149.387 37.4244C148.934 36.7225 148.462 35.8005 147.821 34.8002L147.043 34.8382V37.4233C147.328 37.5865 147.535 37.6345 147.781 37.6345V37.8938H145.703V37.6345C145.959 37.6345 146.166 37.5865 146.441 37.4233V31.6294C146.165 31.4662 145.958 31.4271 145.703 31.4271V31.1678H145.706ZM147.774 34.4548C149.034 34.3587 149.448 33.7339 149.448 32.9751C149.448 31.9759 148.838 31.4752 147.951 31.4752C147.587 31.4752 147.291 31.5132 147.045 31.5422V34.4928L147.774 34.4548Z" fill="black"/>
<path d="M156.736 34.8874L156.628 35.0416L153.732 35.2238C153.723 35.3098 153.723 35.397 153.723 35.4931C153.723 36.6365 154.304 37.5406 155.388 37.5406C155.949 37.5406 156.285 37.3004 156.747 37.0411L156.855 37.2624C156.067 37.791 155.841 37.9832 155.082 37.9832C153.911 37.9832 153.132 37.0992 153.132 35.5322C153.132 34.0044 154.038 33.0041 155.201 33.0041C156.234 33.0041 156.844 33.763 156.736 34.8874ZM153.752 34.9164L156.174 34.7141C156.174 33.7429 155.672 33.3584 155.12 33.3584C154.352 33.3595 153.83 34.0424 153.752 34.9164Z" fill="black"/>
<path d="M161.965 33.4456H160.33V36.6365C160.33 37.6356 160.931 37.5786 161.935 37.3193L161.994 37.5596L160.831 37.9821C160.142 37.9821 159.788 37.7228 159.788 37.0109V33.4445H159.285V33.2142C159.846 32.9639 159.955 32.6666 160.103 31.7915H160.329V33.0891H162.033L161.965 33.4456Z" fill="black"/>
<path d="M164.752 33.2824C165.086 33.1382 165.55 33.0131 166.022 33.0131C167.066 33.0131 167.489 33.4936 167.489 34.6661C167.489 35.7234 167.312 36.7996 167.489 37.4535C167.597 37.5116 167.814 37.5015 168.159 37.4434V37.6736L167.411 37.943C167.086 37.943 166.938 37.7888 166.938 37.3473L166.919 37.3372L166.229 37.7988C165.992 37.924 165.796 37.9531 165.559 37.9531C164.781 37.9531 164.318 37.4535 164.318 36.7225C164.318 36.309 164.476 35.9726 164.672 35.7133C165.382 35.492 166.13 35.3869 166.918 35.435C166.918 35.3679 166.937 34.9164 166.937 34.6761C166.937 33.782 166.652 33.3685 165.863 33.3685C165.489 33.3685 165.253 33.4836 165.154 33.5987C165.066 33.6948 165.006 34.0122 164.986 34.4057H164.76C164.661 34.0312 164.622 33.6658 164.641 33.3863L164.752 33.2824ZM165.786 37.5406C166.101 37.5406 166.347 37.4546 166.919 37.1182V35.6865C166.278 35.6675 165.54 35.7535 165.107 35.9849C164.999 36.1101 164.91 36.3984 164.91 36.6678C164.909 37.2624 165.314 37.5406 165.786 37.5406Z" fill="black"/>
<path d="M171.202 33.6099C171.015 33.5238 170.75 33.5037 170.513 33.5328V33.3025L171.665 33.0041L171.744 33.0622V37.4546C171.96 37.5697 172.256 37.6468 172.443 37.6468V37.8972H170.513V37.6468C170.72 37.6468 170.985 37.5697 171.202 37.4546V33.6099ZM171.084 31.3511C171.084 31.5724 171.232 31.7456 171.459 31.7456C171.685 31.7456 171.832 31.5724 171.832 31.3511C171.832 31.1298 171.684 30.9566 171.459 30.9566C171.232 30.9566 171.084 31.1298 171.084 31.3511Z" fill="black"/>
<path d="M175.398 31.2829C175.21 31.2058 174.945 31.1868 174.699 31.2159V30.9856L175.851 30.6872L175.929 30.7454V36.974C175.929 37.3004 176.008 37.4646 176.224 37.5216C176.382 37.5988 176.727 37.5988 177.268 37.5596V37.7999L176.116 37.9821C175.644 37.9821 175.398 37.7318 175.398 37.0791V31.2829Z" fill="black"/>
<path d="M182.991 34.8874L182.883 35.0416L179.987 35.2238C179.978 35.3098 179.978 35.397 179.978 35.4931C179.978 36.6365 180.558 37.5406 181.642 37.5406C182.203 37.5406 182.539 37.3004 183.001 37.0411L183.109 37.2624C182.322 37.791 182.095 37.9832 181.336 37.9832C180.165 37.9832 179.387 37.0992 179.387 35.5322C179.387 34.0044 180.293 33.0041 181.455 33.0041C182.488 33.0041 183.099 33.763 182.991 34.8874ZM180.006 34.9164L182.429 34.7141C182.429 33.7429 181.926 33.3584 181.374 33.3584C180.608 33.3595 180.086 34.0424 180.006 34.9164Z" fill="black"/>
<path d="M185.521 37.6457C185.718 37.6457 185.994 37.5686 186.211 37.4535V33.5708C186.024 33.4936 185.748 33.4746 185.512 33.4936V33.2634L186.674 32.965L186.753 33.0231V33.6378L187.521 33.0991C187.6 33.041 187.875 33.003 188.141 33.003C188.536 33.003 188.89 33.2053 188.89 33.2053L188.959 33.2914C188.95 33.6859 188.683 33.8971 188.633 33.82C188.476 33.6177 188.181 33.4646 187.826 33.4646C187.551 33.4646 187.314 33.5507 186.753 33.8681V37.4535C186.969 37.5686 187.265 37.6457 187.452 37.6457V37.8961H185.521V37.6457Z" fill="black"/>
<path d="M55.372 0.0357666V22.3887H54.1074V0.0380007L54.1086 0.0357666H55.372Z" fill="black"/>
<path d="M49.6367 19.5063L48.9285 22.3194L48.8193 22.344L48.6572 21.6701L43.4355 0.0357666H44.9381L49.424 18.6245L49.6367 19.5063Z" fill="black"/>
<path d="M71.2093 22.3887H69.7056L67.1591 11.8359L67.0603 11.4257L65.1312 3.43565L64.915 2.53818L65.522 0.0357666H65.8141L65.8853 0.329708L68.5628 11.4257L68.6617 11.8359L71.2093 22.3887Z" fill="black"/>
<path d="M43.6457 0.0357666H43.3008V22.3887H43.6457V0.0357666Z" fill="black"/>
<path d="M54.5434 0.0357666L54.1077 1.76477L49.6367 19.5063L48.8193 22.344L48.6572 21.6701L49.424 18.6245L54.1077 0.0380007L54.1088 0.0357666H54.5434Z" fill="black"/>
<path d="M105.151 0.0357666H103.887V22.3887H105.151V0.0357666Z" fill="black"/>
<path d="M132.628 0.0357666H131.363V22.3887H132.628V0.0357666Z" fill="black"/>
<path d="M163.866 0.0357666H162.601V22.3887H163.866V0.0357666Z" fill="black"/>
<path d="M99.3826 19.3677L99.3091 19.2761L98.6089 22.3418L98.5986 22.344L98.3939 21.4957L93.4252 0.906411L93.2148 0.0357666H94.7174L99.1734 18.4993L99.3826 19.3677Z" fill="black"/>
<path d="M93.425 0.0357666H93.0801V22.3887H93.425V0.0357666Z" fill="black"/>
<path d="M104.315 0.0357666L103.789 2.05982L99.2846 19.3677V19.3688L98.6086 22.3418L98.3672 21.3772L99.0754 18.4993L103.789 0.382238L103.879 0.0357666H104.315Z" fill="black"/>
<path d="M65.8857 0.329708L65.1316 3.43565L63.1933 11.4257L63.0944 11.8359L60.5342 22.3887H60.0996L62.6598 11.8359L62.7587 11.4257L64.9154 2.53818L65.5224 0.0357666H65.8144L65.8857 0.329708Z" fill="black"/>
<path d="M68.6619 11.8359H62.6597L62.7585 11.4257H68.563L68.6619 11.8359Z" fill="black"/>
<path d="M157.454 22.3887H155.95L153.404 11.8359L153.305 11.4257L151.376 3.43565L151.16 2.53818L151.767 0.0357666H152.059L152.13 0.329708L154.807 11.4257L154.906 11.8359L157.454 22.3887Z" fill="black"/>
<path d="M152.13 0.329708L151.376 3.43565L149.437 11.4257L149.339 11.8359L146.778 22.3887H146.344L148.904 11.8359L149.003 11.4257L151.16 2.53818L151.767 0.0357666H152.059L152.13 0.329708Z" fill="black"/>
<path d="M154.907 11.8359H148.904L149.003 11.4257H154.808L154.907 11.8359Z" fill="black"/>
<path d="M188.96 22.4077H187.456L184.91 11.8549L184.811 11.4447L182.882 3.45465L182.666 2.55718L183.273 0.0547638H183.565L183.636 0.348706L186.313 11.4447L186.412 11.8549L188.96 22.4077Z" fill="black"/>
<path d="M183.636 0.330822L182.882 3.43676L180.943 11.4268L180.844 11.837L178.284 22.3898H177.85L180.41 11.837L180.509 11.4268L182.665 2.53929L183.272 0.0368805H183.564L183.636 0.330822Z" fill="black"/>
<path d="M186.412 11.837H180.41L180.509 11.4268H186.314L186.412 11.837Z" fill="black"/>
<path d="M142.4 21.9774H131.363V22.3876H142.4V21.9774Z" fill="black"/>
<path d="M118.16 0.033528C119.353 0.033528 120.392 0.357647 121.276 1.00588C122.16 1.65412 122.897 2.50241 123.487 3.54965C124.076 4.59688 124.514 5.79053 124.802 7.12835C125.089 8.46729 125.23 9.83418 125.223 11.2301C125.216 12.6261 125.061 13.9896 124.759 15.3196C124.457 16.6496 124.005 17.8388 123.402 18.886C122.798 19.9332 122.051 20.7771 121.16 21.4175C120.269 22.0568 119.226 22.3775 118.034 22.3775C116.827 22.3775 115.774 22.0568 114.876 21.4175C113.978 20.7782 113.234 19.9332 112.645 18.886C112.055 17.8388 111.613 16.6418 111.318 15.295C111.024 13.9482 110.882 12.5769 110.897 11.1809C110.911 9.785 111.073 8.417 111.381 7.07918C111.689 5.74135 112.146 4.54771 112.749 3.50047C113.353 2.45324 114.107 1.60941 115.012 0.969002C115.918 0.32859 116.967 0.0167633 118.16 0.033528ZM118.034 22.1529C118.988 22.1361 119.819 21.812 120.529 21.1805C121.237 20.5491 121.827 19.722 122.297 18.6994C122.767 17.6767 123.118 16.5177 123.35 15.2201C123.581 13.9236 123.697 12.5981 123.697 11.2424C123.697 9.88782 123.581 8.55783 123.35 7.25241C123.119 5.947 122.771 4.788 122.308 3.77429C121.845 2.76059 121.267 1.94582 120.571 1.33C119.877 0.715293 119.073 0.406825 118.16 0.406825C117.234 0.406825 116.42 0.723117 115.719 1.35459C115.016 1.98606 114.428 2.81312 113.95 3.83577C113.473 4.85841 113.108 6.02188 112.856 7.32729C112.603 8.63271 112.466 9.96718 112.446 11.3296C112.425 12.6931 112.523 14.0231 112.74 15.3196C112.957 16.6161 113.298 17.7717 113.761 18.7854C114.224 19.7991 114.809 20.6184 115.519 21.242C116.227 21.8656 117.065 22.1685 118.034 22.1529Z" fill="black"/>
<path d="M173.29 7.13394C172.874 5.795 172.471 4.60135 171.618 3.55412C170.765 2.50576 169.929 1.65747 168.651 1.00924C167.371 0.361 165.87 0.0357656 164.144 0.0357656C164.051 0.034648 163.958 0.034648 163.866 0.0357656V0.414646C163.958 0.411293 164.051 0.410178 164.144 0.410178C165.464 0.410178 166.626 0.718646 167.631 1.33335C168.636 1.94918 169.472 2.76394 170.143 3.77876C170.812 4.79359 171.314 5.95371 171.65 7.25912C171.984 8.56453 172.152 9.89453 172.152 11.2502C172.152 12.6059 171.984 13.9326 171.65 15.2291C171.314 16.5266 170.807 17.6868 170.128 18.7094C169.447 19.7332 168.594 20.5602 167.57 21.1917C166.544 21.8243 165.342 22.1484 163.961 22.1652C163.929 22.1652 163.897 22.1663 163.866 22.1663V22.3887C163.898 22.3898 163.929 22.3898 163.961 22.3898C165.687 22.3898 167.194 22.0691 168.483 21.4286C169.771 20.7893 170.623 19.9444 171.496 18.8972C172.368 17.8488 172.909 16.6608 173.344 15.3296C173.781 13.9985 173.889 12.635 173.9 11.2379C173.91 9.84088 173.707 8.47288 173.29 7.13394Z" fill="black"/>
<path d="M78.0351 0.0357666H76.7705V22.3887H78.0351V0.0357666Z" fill="black"/>
<path d="M81.218 7.99676C81.5238 8.62823 81.8228 9.24183 82.1136 9.83641C82.4056 10.4321 82.6976 11.0356 82.9885 11.6492C83.2805 12.2628 83.5805 12.8976 83.8909 13.5537C84.2013 14.2098 84.5278 14.9083 84.8704 15.6493H83.7875C83.4265 14.8837 83.0931 14.1762 82.7873 13.5269C82.4815 12.8775 82.1872 12.255 81.9055 11.6593C81.6227 11.0647 81.3411 10.4746 81.0582 9.8923C80.7754 9.30888 80.4765 8.69641 80.1627 8.05265H77.8289V15.6504H76.8149V0.0368805H80.5099C81.0559 0.0368805 81.5514 0.128529 81.9963 0.310705C82.4413 0.492882 82.8183 0.760001 83.1287 1.11206C83.4391 1.46412 83.6748 1.89888 83.8369 2.41523C83.999 2.93159 84.0657 3.52394 84.0381 4.19118C83.9921 5.27194 83.7185 6.14035 83.2184 6.79641C82.7183 7.45024 82.0515 7.85147 81.218 7.99676ZM80.5237 7.68718C80.9686 7.68718 81.3411 7.58994 81.6423 7.39547C81.9435 7.201 82.1837 6.93723 82.3642 6.60306C82.5447 6.26888 82.6769 5.88665 82.7597 5.45524C82.8436 5.02382 82.885 4.57118 82.885 4.09841C82.885 3.64912 82.8482 3.20318 82.7735 2.75947C82.6988 2.31576 82.5723 1.91565 82.3918 1.55688C82.2113 1.19923 81.9699 0.913116 81.6699 0.700763C81.3687 0.48841 80.9916 0.382236 80.5375 0.382236C80.0834 0.394531 79.6316 0.400116 79.1832 0.400116C78.7337 0.400116 78.2819 0.400116 77.8289 0.400116V7.6883H80.5237V7.68718Z" fill="black"/>
<path d="M88.184 22.3887H86.571L79.6675 7.96659L79.6514 7.93306H81.2643L81.2792 7.96323L88.184 22.3887Z" fill="black"/>
</g>
<defs>
<clipPath id="clip0_1641_903">
<rect width="189" height="38" fill="white"/>
</clipPath>
</defs>
</svg>
